<svg viewBox="0 0 60 60" fill="none" xmlns="http://www.w3.org/2000/svg" xmlns:xlink="http://www.w3.org/1999/xlink" x="0" y="0"><g id="Group 48095497">
<rect id="Rectangle 29" x="0.5" y="0.5" width="59" height="59" rx="29.5" fill="white" stroke="#EEF1F6"/>
<g id="Notification 5">
<g id="Group_2">
<g id="Iconly/Light-Outline/Notification">
<g id="Notification">
<path id="Combined-Shape" fill-rule="evenodd" clip-rule="evenodd" d="M28.64,38.8735c0.52,0.6565 1.19,1.0171 1.88,1.0171v0c0.69,0 1.36,-0.3606 1.88,-1.0182c0.13,-0.1682 0.32,-0.2694 0.51,-0.2812c0.2,-0.0119 0.4,0.0666 0.55,0.218c0.14,0.1515 0.23,0.3636 0.24,0.5897c0.01,0.226 -0.06,0.4475 -0.19,0.6157c-0.81,1.0205 -1.87,1.5826 -2.99,1.5826h-0.01c-1.12,-0.0012 -2.18,-0.5632 -2.98,-1.5837c-0.07,-0.0833 -0.12,-0.1805 -0.15,-0.2861c-0.03,-0.1056 -0.05,-0.2175 -0.04,-0.3293c0,-0.1119 0.03,-0.2214 0.07,-0.3225c0.04,-0.101 0.1,-0.1915 0.17,-0.2664c0.08,-0.0748 0.16,-0.1325 0.26,-0.1698c0.09,-0.0373 0.19,-0.0534 0.28,-0.0474c0.1,0.0059 0.2,0.0339 0.29,0.0822c0.09,0.0483 0.17,0.116 0.23,0.1993zM30.57,17.1367c4.44,0 7.43,3.9387 7.43,7.6169c0,1.892 0.42,2.6941 0.87,3.545c0.44,0.8397 0.95,1.7931 0.95,3.5952c-0.35,4.6042 -4.58,4.9797 -9.25,4.9797c-4.68,0 -8.91,-0.3755 -9.25,-4.9069c0,-1.8749 0.5,-2.8283 0.94,-3.668l0.16,-0.3003c0.39,-0.7543 0.71,-1.5757 0.71,-3.2447c0,-3.6782 2.99,-7.6169 7.44,-7.6169zM30.57,18.8433c-3.5,0 -5.93,3.115 -5.93,5.9103c0,2.3653 -0.58,3.4586 -1.09,4.4233c-0.41,0.7748 -0.73,1.3869 -0.73,2.7169c0.16,2.1457 1.41,3.2731 7.75,3.2731c6.3,0 7.58,-1.1775 7.75,-3.3471c0,-1.256 -0.33,-1.8681 -0.74,-2.6429c-0.51,-0.9647 -1.08,-2.058 -1.08,-4.4233c0,-2.7953 -2.44,-5.9103 -5.93,-5.9103z" fill="#141736"/>
</g>
</g>
</g>
</g>
<rect id="Rectangle 1956" x="55.819999999999936" y="4.5" width="9" height="9" rx="4.5" transform="rotate(90, 55.819999999999936, 4.5)" fill="#FF6471" stroke="white"/>
</g></svg>