<svg viewBox="0 0 18.406 18.406" fill="none" xmlns="http://www.w3.org/2000/svg" xmlns:xlink="http://www.w3.org/1999/xlink" x="0" y="0"><g id="person-group">
<path id="Rectangle 9870" d="M3.8337,3.8348c0,-1.058 0.859,-1.917 1.918,-1.917c1.058,0 1.917,0.859 1.917,1.917c0,1.059 -0.859,1.918 -1.917,1.918c-1.059,0 -1.918,-0.859 -1.918,-1.918z" stroke="#0B1E66" stroke-width="1.53383" stroke-linecap="round" stroke-linejoin="round"/>
<path id="Rectangle 9871" d="M10.7367,3.8348c0,-1.058 0.858,-1.917 1.917,-1.917c1.059,0 1.917,0.859 1.917,1.917c0,1.059 -0.858,1.918 -1.917,1.918c-1.059,0 -1.917,-0.859 -1.917,-1.918z" stroke="#0B1E66" stroke-width="1.53383" stroke-linecap="round" stroke-linejoin="round"/>
<path id="Union" d="M9.2027,9.2008c0,-1.906 -1.545,-3.451 -3.451,-3.451c-1.906,0 -3.451,1.545 -3.451,3.451v2.685h1.534v4.601h3.834v-4.601h1.534z" stroke="#0B1E66" stroke-width="1.53383" stroke-linecap="round" stroke-linejoin="round"/>
<path id="Union_2" d="M10.7367,14.1858v2.301h3.834v-4.601h1.534v-2.685c0,-1.906 -1.545,-3.451 -3.451,-3.451c-0.551,0 -1.072,0.129 -1.534,0.359" stroke="#0B1E66" stroke-width="1.53383" stroke-linecap="round" stroke-linejoin="round"/>
</g></svg>