<svg viewBox="0 0 16.1232 16.1231" fill="none" xmlns="http://www.w3.org/2000/svg" xmlns:xlink="http://www.w3.org/1999/xlink" x="0" y="0"><g id="search-normal">
<path id="Vector_42" d="M7.6875,15.3725c-4.238,0 -7.687,-3.45 -7.687,-7.69c0,-4.23 3.449,-7.68 7.687,-7.68c4.238,0 7.687,3.45 7.687,7.68c0,4.24 -3.449,7.69 -7.687,7.69zM7.6875,1.1225c-3.622,0 -6.563,2.95 -6.563,6.56c0,3.62 2.941,6.57 6.563,6.57c3.622,0 6.563,-2.95 6.563,-6.57c0,-3.61 -2.941,-6.56 -6.563,-6.56z" fill="currentColor"/>
<path id="Vector_43" d="M15.5625,16.1225c-0.142,0 -0.285,-0.05 -0.397,-0.16l-1.5,-1.5c-0.218,-0.22 -0.218,-0.58 0,-0.8c0.217,-0.22 0.577,-0.22 0.795,0l1.5,1.5c0.217,0.22 0.217,0.58 0,0.8c-0.113,0.11 -0.255,0.16 -0.398,0.16z" fill="currentColor"/>
</g></svg>