<svg viewBox="0 0 21.4972 21.5014" fill="none" xmlns="http://www.w3.org/2000/svg" xmlns:xlink="http://www.w3.org/1999/xlink" x="0" y="0"><g id="Group">
<path id="Vector_40" d="M10.25,20.5c-5.65,0 -10.25,-4.6 -10.25,-10.25c0,-5.65 4.6,-10.25 10.25,-10.25c5.65,0 10.25,4.6 10.25,10.25c0,5.65 -4.6,10.25 -10.25,10.25zM10.25,1.5c-4.83,0 -8.75,3.93 -8.75,8.75c0,4.82 3.92,8.75 8.75,8.75c4.83,0 8.75,-3.93 8.75,-8.75c0,-4.82 -3.92,-8.75 -8.75,-8.75z" fill="currentColor"/>
<path id="Vector_41" d="M20.75,21.5014c-0.19,0 -0.38,-0.07 -0.53,-0.22l-2,-2c-0.14,-0.1411 -0.218,-0.3316 -0.218,-0.53c0,-0.1984 0.078,-0.3889 0.218,-0.53c0.29,-0.29 0.77,-0.29 1.06,0l2,2c0.29,0.29 0.29,0.77 0,1.06c-0.15,0.15 -0.34,0.22 -0.53,0.22z" fill="currentColor"/>
</g></svg>